<svg xmlns="http://www.w3.org/2000/svg" width="92" height="45" fill="none"><path fill="#3c4242" d="M3.46 27.39c.266-.05.565-.082.898-.082.05-1.747 1.048-4.64 2.112-7.635-.998-.15-1.846-.15-2.362.2-.366-1.447 1.015-1.73 2.911-1.697C8 15.4 8.95 12.688 9.148 10.875c-1.58-.1-2.977.066-3.859 1.064-.282.3-1.048-3.476 2.412-4.108 2.81-.516 8.799 1.78 10.678-.865.283-.383.516 3.077-1.364 4.008-1.197.582-2.777.516-4.424.316-.233 1.597-1.098 4.242-1.996 7.12 1.963.132 3.692.116 4.058-.816.583 3.476-1.896 3.36-4.657 2.794-.765 2.562-1.48 5.156-1.746 7.269 2.412.283 4.823.382 5.888-1.131.283-.383.515 3.077-1.364 3.992-3.293 1.63-9.364-1.697-11.726.964-.283.3-1.048-3.476 2.412-4.091M17.48 17.163c-.017-.067 3.676-.4 3.61 1.73-.05 1.363-3.244 8.349-2.579 10.594 1.63-2.079 5.971-12.324 5.971-12.324-.016-.067 3.676-.4 3.593 1.73-.05 1.38-2.844 6.952-2.561 10.694 1.28-1.347 2.827-5.056 3.11-5.755.033-.066.1-.1.166-.1.133 0 .216.117.183.233-.4 1.231-2.062 6.304-2.927 6.82-.998.615-3.71-.416-3.959-1.547-.482-2.096 1.547-7.085 2.229-10.096-1.33 3.476-4.408 11.277-5.472 11.743-.982.415-3.643-.433-3.859-1.764-.4-2.411 3.01-10.029 2.495-11.958m7.401 21.755c-.681-4.191 5.672-18.296 5.007-21.789-.017-.066 3.825 0 3.592 2.113-.216 2.012-3.077 9.946-4.424 15.85 2.412-8.948 7.052-17.414 7.768-17.83.648-.382 2.644.183 3.46 1.614 1.097 1.93-1.231 11.244-5.09 12.025-.865.183-2.911-1.098-3.327-1.613-1.43 3.676-2.76 7.784-3.393 11.576-.083.4-3.31-.216-3.593-1.946M37.175 18.31c-.216-.083-2.778 4.558-5.123 10.496 3.077 1.73 5.905-10.18 5.123-10.496m2.778 10.679c-.682-4.209 5.755-18.795 5.322-21.906-.017-.066 3.51.117 3.277 2.23-.233 2.178-3.61 11.36-4.74 17.347 1.613-3.992 4.424-9.697 6.037-9.547.931.083 2.81.965 2.977 1.53.466 1.563-2.794 8.699-2.86 11.06 1.297-1.247 2.927-5.155 3.21-5.87.033-.067.1-.1.166-.1.133 0 .216.116.183.232-.4 1.231-2.229 6.87-2.96 6.97-1.448.2-3.893-.849-4.092-2.163-.25-1.78 2.594-7.551 2.877-10.345-.832-.133-5.838 9.88-5.805 12.458.1.465-3.293-.134-3.592-1.896m13.023-.233c-.981-2.778 1.247-9.73 3.759-11.344.865-.565 3.21-.416 3.959.083.648.416.232.815.232.815-2.71-1.264-5.904 10.512-4.657 11.66 1.447 1.33 4.89-9.564 2.811-9.996 0 0 .965-1.364 1.796-1.264 2.878.382.699 10.162-3.326 12.058-1.098.516-3.71.416-4.574-2.012m8.715.399c-.432-2.645 2.845-10.096 2.312-12.026-.016-.066 3.876-.366 3.81 1.764-.05 1.197-2.163 5.555-2.529 9.13 1.264-3.924 4.158-11.077 5.955-10.91.931.083 2.561.848 2.727 1.397.216.732-2.012 4.225-1.413 6.387-4.957-.216-1.747-5.822-1.813-6.47-.832-.133-5.29 9.78-5.273 12.374.017.1-.1.167-.183.15-.715-.083-3.376-.466-3.593-1.796m17.232-12.292c-4.757-.632-1.73-3.31-1.93-5.073 5.156.832 1.514 2.612 1.93 5.073m-6.387 12.292c-.466-2.545 2.96-10.096 2.445-12.026-.017-.066 3.842-.366 3.775 1.764-.05 1.38-2.81 6.869-2.578 10.611 1.264-1.414 2.761-4.99 3.044-5.672.017-.066.083-.1.166-.1.117 0 .2.117.167.233-.383 1.231-2.196 6.554-2.994 6.936-.815.366-3.809-.499-4.025-1.746m9.946 1.73c-.599.415-3.293-.316-3.908-1.43-.799-1.431 1.197-8.683 3.027-11.028 1.43-1.813 4.524-1.364 5.256-.932.183.1.25.2.15.483-.117.316-.35.25-.716.15-1.863-.483-4.657 9.73-4.474 11.809l5.938-12.641c.2-.55 3.725.366 3.393 1.064s-2.761 8.982-2.828 11.344c1.298-1.248 2.944-5.156 3.227-5.872.033-.066.1-.1.166-.1.117 0 .216.117.167.233-.383 1.231-2.213 6.87-2.944 6.97-1.464.2-3.909-.849-4.092-2.163-.166-1.114.748-4.557 1.597-7.385-1.464 3.793-3.626 9.265-3.959 9.498"/><path stroke="#333" stroke-linecap="round" stroke-linejoin="round" stroke-miterlimit="10" stroke-width=".42" d="M.567 33.626h22.404"/><path stroke="#3c4242" stroke-linecap="round" stroke-linejoin="round" stroke-miterlimit="10" stroke-width=".42" d="M32.553 33.626h59.05"/><path fill="#3c4242" d="M40.518 41.262q-.245 0-.569-.193-.323-.194-.685-.513a10 10 0 0 1-.713-.694q-.35-.374-.646-.747a13 13 0 0 1-.495-.66l-1.08 2.331a.46.46 0 0 1-.245.241 1.2 1.2 0 0 1-.362.086q-.195.014-.384.014a6 6 0 0 0 .295-.475 49 49 0 0 0 .841-1.567q.279-.542.663-1.296.384-.753.908-1.77l.09-.167a.44.44 0 0 0 .055-.197.16.16 0 0 0-.056-.13q-.055-.048-.211-.048-.267 0-.518.144a1.7 1.7 0 0 0-.445.368q-.195.223-.307.46t-.111.424a.56.56 0 0 0 .055.252q-.368 0-.518-.122a.37.37 0 0 1-.15-.301q0-.252.223-.505a2.4 2.4 0 0 1 .573-.464 3.6 3.6 0 0 1 .736-.338 2.3 2.3 0 0 1 .695-.126q.3 0 .407.112.105.111.106.245 0 .082-.028.163a2 2 0 0 1-.061.156l-.936 2.02q.157-.149.406-.275.25-.125.552-.29.5-.267 1.075-.623.574-.357 1.096-.75a7 7 0 0 0 .87-.758q.054.045.078.156a1 1 0 0 1 .022.17q0 .232-.284.506-.285.274-.74.567a13 13 0 0 1-1.003.58 33 33 0 0 1-2.027.976q.334.378.651.72t.69.668q.374.328.875.669.502.34 1.213.735a.64.64 0 0 1-.245.17.85.85 0 0 1-.356.076M46.477 40.98q-.681 0-1.008-.275-.33-.275-.329-.661a3.6 3.6 0 0 1-1.102.66 3.5 3.5 0 0 1-1.258.238q-.68 0-1.02-.249t-.34-.612q0-.334.251-.705.252-.371.668-.698t.919-.531q.5-.204.992-.205.255 0 .473.09.217.088.217.364 0 .281-.25.53a2.4 2.4 0 0 1-.657.442q-.407.194-.891.316a5 5 0 0 1-.963.152 1 1 0 0 0-.034.141.612.612 0 0 0 .067.42.57.57 0 0 0 .267.237q.189.093.535.093.59 0 1.17-.278a4 4 0 0 0 1.013-.687q.1-.305.356-.609.255-.304.619-.553.361-.25.785-.401a2.5 2.5 0 0 1 .858-.152q.255 0 .473.089.216.089.217.364 0 .38-.384.664-.385.286-.985.457a6 6 0 0 1-1.236.216q-.022.074-.034.14a.716.716 0 0 0 .06.43.57.57 0 0 0 .256.257q.185.1.53.1.48 0 .957-.19.48-.188.892-.497.412-.308.69-.664l.134.066a3.1 3.1 0 0 1-.775.784 4 4 0 0 1-1.024.527q-.553.19-1.11.19m-4.244-1.285a6.3 6.3 0 0 0 1.41-.505q.35-.18.578-.393.228-.216.228-.454 0-.081-.044-.126-.045-.044-.19-.044-.266 0-.568.137-.3.138-.579.36a3.5 3.5 0 0 0-.501.49q-.223.267-.334.535m3.72 0q.3-.067.658-.179.356-.111.68-.263.323-.153.534-.349.211-.197.212-.434 0-.081-.056-.137t-.201-.056q-.356 0-.718.209-.361.207-.658.53-.295.323-.45.678"/><path fill="#3c4242" d="M48.315 42.695a.3.3 0 0 1-.173-.063.5.5 0 0 1-.173-.22 9 9 0 0 1 .307-.649q.15-.285.301-.587.15-.3.295-.705t.301-1.006.312-1.493q.011-.067.045-.096.033-.03.166-.03.289 0 .413.107.122.108.122.234 0 .103-.067.37a9 9 0 0 1-.189.632q.19-.246.473-.498a2.7 2.7 0 0 1 .652-.423q.367-.17.802-.17.49 0 .807.233.317.234.317.613 0 .29-.195.612a2.4 2.4 0 0 1-.545.61q-.351.285-.83.463-.48.179-1.058.178a2 2 0 0 1-.468-.044q-.177-.045-.178-.09 0-.03.084-.033.083-.004.195-.004.445 0 .852-.145t.73-.383.507-.526q.183-.29.183-.572a.58.58 0 0 0-.15-.405q-.15-.166-.485-.166-.29 0-.574.122-.285.122-.534.312a3.6 3.6 0 0 0-.446.393q-.195.204-.295.367-.2.557-.4 1.073-.201.516-.385.936-.183.42-.334.686-.15.269-.25.327a.22.22 0 0 1-.135.04M57.07 40.808q-.435 0-.647-.182a.56.56 0 0 1-.21-.441q-.001-.171.094-.431a4 4 0 0 1 .25-.546q.155-.285.362-.538.206-.252.44-.413a.8.8 0 0 1 .457-.16.35.35 0 0 1 .173.041.13.13 0 0 1 .072.122q0 .09-.173.29-.172.2-.406.46a3.6 3.6 0 0 0-.407.546 1.06 1.06 0 0 0-.172.546q0 .267.133.356.135.09.413.09.379 0 .807-.254.43-.252.908-.883l.1.075a2.27 2.27 0 0 1-.93.98 2.54 2.54 0 0 1-1.265.342m1.335-3.4a.8.8 0 0 1-.317-.06q-.14-.059-.14-.185 0-.157.274-.271a1.4 1.4 0 0 1 .54-.116q.166 0 .267.053.1.051.1.178 0 .14-.228.271a1 1 0 0 1-.496.13"/><path fill="#3c4242" d="M59.897 40.957q-.48 0-.735-.186-.255-.184-.255-.549 0-.326.183-.806a8 8 0 0 1 .462-.984l-.21-.026a2 2 0 0 1-.19-.033v-.133q.09.007.212.014l.278.015q.233-.4.5-.776.268-.374.53-.668.262-.293.501-.468.24-.174.407-.174.089 0 .16.04a.13.13 0 0 1 .073.122q0 .127-.233.413-.234.285-.58.679-.345.394-.668.854h.412q.367 0 .774-.008.407-.007.819-.037v.134q-.613.045-1.097.067t-.863.022h-.168q-.256.395-.434.81t-.178.81q0 .318.145.456.144.137.479.137.58 0 1.136-.342.555-.341.98-.927l.144.074a3.2 3.2 0 0 1-.673.75q-.406.333-.897.527-.49.193-1.014.193M66.213 41.031q-.535 0-.891-.237-.357-.238-.357-.713 0-.371.218-.725.216-.352.573-.634t.79-.45q.435-.165.859-.166.456 0 .624.178a.54.54 0 0 1 .166.371q0 .216-.15.379a.53.53 0 0 1-.407.163.5.5 0 0 1-.323-.11.6.6 0 0 0 .29-.242.63.63 0 0 0 .123-.346.18.18 0 0 0-.05-.137q-.051-.049-.195-.049-.301 0-.619.179a2.838 2.838 0 0 0-1.035 1.054 1.2 1.2 0 0 0-.173.586q0 .23.167.424.168.192.646.192.446 0 .897-.163.45-.164.84-.468t.625-.713l.144.075q-.256.445-.701.798-.447.353-.98.553a3 3 0 0 1-1.081.201"/><path fill="#3c4242" d="M69.543 40.838q-.479 0-.685-.219a.77.77 0 0 1-.206-.545q0-.356.2-.846t.53-1.033a12.8 12.8 0 0 1 1.498-1.998q.39-.423.718-.676.329-.252.518-.252a.25.25 0 0 1 .2.092.7.7 0 0 1 .123.223q.045.13.045.234 0 .2-.151.524-.15.323-.423.72a7 7 0 0 1-.646.802q-.374.405-.813.776-.44.37-.93.638-.067.201-.106.39-.04.19-.04.36 0 .29.123.431.122.142.368.142.301 0 .596-.178a2.8 2.8 0 0 0 .557-.45q.262-.27.45-.56l.167.059q-.445.63-.97.998a1.9 1.9 0 0 1-1.123.368m.078-1.812q.39-.26.758-.597.367-.339.685-.702t.562-.705a4.5 4.5 0 0 0 .379-.612q.135-.27.134-.42 0-.073-.028-.096-.027-.023-.05-.023-.09 0-.306.19a7 7 0 0 0-.507.508 9 9 0 0 0-.59.727q-.3.408-.574.855-.274.445-.463.875"/><path fill="#3c4242" d="M71.782 40.964q-.346 0-.585-.152a.51.51 0 0 1-.24-.464q0-.267.179-.575a2.8 2.8 0 0 1 .49-.61q.312-.3.707-.548.396-.25.836-.398a2.7 2.7 0 0 1 .874-.148q.434 0 .724.152.29.153.29.405 0 .186-.151.253a1 1 0 0 1-.396.067q.022-.06.04-.13a.5.5 0 0 0 .016-.13.4.4 0 0 0-.122-.294q-.123-.121-.423-.122-.312 0-.635.145a3 3 0 0 0-.624.386q-.3.242-.535.524a3 3 0 0 0-.368.557q-.133.274-.133.49 0 .29.3.29.257 0 .558-.16.3-.16.618-.409a10 10 0 0 0 .607-.516q.29-.267.512-.49.046-.045.055-.045.068.008.173.03.106.022.184.06.078.036.078.096 0 .067-.1.182-.101.115-.223.264-.123.15-.223.3a.53.53 0 0 0-.1.287q0 .111.09.218.088.109.289.108.3 0 .79-.293t.992-.88l.111.074a2.6 2.6 0 0 1-.601.705 3 3 0 0 1-.785.476q-.418.17-.819.17-.412 0-.607-.164-.195-.163-.195-.356 0-.045.012-.1l.022-.115q-.479.43-.874.646a1.7 1.7 0 0 1-.808.214"/><path fill="#3c4242" d="M77.273 40.994q-.524 0-.83-.152t-.435-.375a.9.9 0 0 1-.128-.445q0-.224.09-.342a.6.6 0 0 1 .217-.178q.127-.06.245-.09a.6.6 0 0 0 .161-.059q.334-.245.613-.512a4 4 0 0 0 .49-.565v-.089q0-.274.139-.39a.46.46 0 0 1 .295-.115q.09 0 .134.03t.044.067q0 .036-.033.119a.6.6 0 0 0-.034.208q0 .246.145.53.145.287.29.602.143.316.144.657a1 1 0 0 1-.067.363q.39-.044.735-.233.345-.19.668-.605l.1.074a1.4 1.4 0 0 1-.634.62q-.423.212-.925.263-.18.32-.562.468a2.4 2.4 0 0 1-.862.15m.022-.26q.135 0 .356-.059a.55.55 0 0 0 .346-.304 2.5 2.5 0 0 1-.83-.245 2 2 0 0 1-.54-.37q-.245.007-.245.259 0 .266.24.494.237.225.673.225m.757-.483a1 1 0 0 0 .033-.156 1.4 1.4 0 0 0 .012-.192 2 2 0 0 0-.128-.695q-.129-.345-.218-.65a8 8 0 0 1-.54.539q-.284.256-.54.427.167.237.518.445.351.21.863.282"/><path fill="#3c4242" d="M81.115 40.994q-.524 0-.83-.152t-.435-.375a.9.9 0 0 1-.128-.445q0-.224.089-.342a.6.6 0 0 1 .217-.178q.129-.06.245-.09a.6.6 0 0 0 .162-.059q.334-.245.613-.512a4 4 0 0 0 .49-.565v-.089q0-.274.139-.39a.46.46 0 0 1 .295-.115q.089 0 .133.03t.045.067-.033.119a.6.6 0 0 0-.034.208q0 .246.145.53.143.287.29.602.143.316.144.657a1 1 0 0 1-.067.363q.39-.044.735-.233.345-.19.668-.605l.1.074a1.4 1.4 0 0 1-.635.62q-.422.212-.924.263-.18.32-.563.468-.382.15-.861.15m.022-.26q.134 0 .356-.059a.55.55 0 0 0 .346-.304 2.5 2.5 0 0 1-.83-.245 2 2 0 0 1-.54-.37q-.245.007-.245.259 0 .266.24.494.238.225.673.225m.757-.483a1 1 0 0 0 .033-.156 1.4 1.4 0 0 0 .012-.192 2 2 0 0 0-.128-.695q-.129-.345-.218-.65a8 8 0 0 1-.54.539q-.284.256-.54.427.167.237.518.445.351.21.863.282"/><path fill="#3c4242" d="M84.267 42.695q-.279 0-.49-.1-.212-.1-.212-.294 0-.237.178-.423.178-.184.48-.342.3-.154.69-.297.39-.14.813-.282a10 10 0 0 0 .317-.612q.162-.338.307-.746a4.5 4.5 0 0 1-.763.665 1.5 1.5 0 0 1-.864.278q-.21 0-.417-.063a.8.8 0 0 1-.34-.197.46.46 0 0 1-.133-.342q0-.208.106-.482a3.5 3.5 0 0 1 .261-.535q.156-.258.324-.43.167-.172.29-.171.045 0 .16.022.119.023.224.063.106.042.106.085a2 2 0 0 0-.223.275 4 4 0 0 0-.435.825 1 1 0 0 0-.078.356q0 .134.09.215.089.082.311.082.212 0 .474-.138a3 3 0 0 0 .523-.353q.262-.215.485-.46a3 3 0 0 0 .111-.34.7.7 0 0 1 .162-.242q.128-.137.406-.137l.112.003a1 1 0 0 1 .122.019q0 .118-.106.441-.107.325-.301.754-.196.43-.463.883.523-.133 1.025-.441.501-.309.813-.82l.144.074q-.166.356-.507.62-.34.263-.763.453-.422.189-.836.316a8 8 0 0 1-.629.89 3.5 3.5 0 0 1-.713.673q-.371.255-.76.255m-.056-.238q.168 0 .563-.294.395-.293.84-1.028-.456.163-.846.323-.39.159-.624.346-.234.185-.233.43 0 .06.067.142.066.08.233.08M88.566 40.69a.6.6 0 0 1-.25-.048q-.106-.049-.106-.153 0-.081.1-.152a.8.8 0 0 1 .25-.111q.15-.04.295-.04.134 0 .21.036.078.037.079.142 0 .075-.084.148a.7.7 0 0 1-.218.126.8.8 0 0 1-.276.052"/></svg>